# MagicaVoxel @ Ephtracy

# group
o 

# material
mtllib tankBOVEN.mtl
usemtl palette

# normals
vn -1 0 0
vn 1 0 0
vn 0 0 1
vn 0 0 -1
vn 0 -1 0
vn 0 1 0

# texcoords
vt 0.302734 0.5
vt 0.306641 0.5
vt 0.310547 0.5
vt 0.994141 0.5

# verts
v -1 1 0.9
v -1 1 -0.3
v -1 1.3 0.9
v -1 1.3 -0.3
v -0.9 0.8 1.1
v -0.9 0.8 -0.5
v -0.9 1 0.9
v -0.9 1 -0.3
v -0.9 1.3 0.9
v -0.9 1.3 -0.3
v -0.9 1.6 1.1
v -0.9 1.6 -0.5
v -0.7 0.8 1.3
v -0.7 0.8 1.1
v -0.7 0.8 -0.5
v -0.7 0.8 -0.7
v -0.7 1.6 1.3
v -0.7 1.6 1.1
v -0.7 1.6 -0.5
v -0.7 1.6 -0.7
v -0.7 1.7 1.1
v -0.7 1.7 -0.5
v -0.5 1.7 0.8
v -0.5 1.7 -0.2
v -0.5 1.8 0.8
v -0.5 1.8 -0.2
v -0.4 1.7 0.9
v -0.4 1.7 0.8
v -0.4 1.7 -0.2
v -0.4 1.7 -0.3
v -0.4 1.8 0.9
v -0.4 1.8 0.8
v -0.4 1.8 -0.2
v -0.4 1.8 -0.3
v -0.2 1 -1.5
v -0.2 1 -1.6
v -0.2 1.1 -0.7
v -0.2 1.1 -1.5
v -0.2 1.3 -0.7
v -0.2 1.3 -1.5
v -0.2 1.4 -1.5
v -0.2 1.4 -1.6
v -0.1 1 -0.7
v -0.1 1 -1.5
v -0.1 1.1 -0.7
v -0.1 1.1 -1.5
v -0.1 1.3 -0.7
v -0.1 1.3 -1.5
v -0.1 1.4 -0.7
v -0.1 1.4 -1.5
v 0.1 1.1 -1.5
v 0.1 1.1 -1.6
v 0.1 1.3 -1.5
v 0.1 1.3 -1.6
v 0.3 1.5 0.7
v 0.3 1.5 -0.1
v 0.3 1.6 0.7
v 0.3 1.6 -0.1
v 0.3 1.8 0.7
v 0.3 1.8 -0.1
v -0.3 1.5 0.7
v -0.3 1.5 -0.1
v -0.3 1.6 0.7
v -0.3 1.6 -0.1
v -0.3 1.8 0.7
v -0.3 1.8 -0.1
v -0.1 1.1 -1.5
v -0.1 1.1 -1.6
v -0.1 1.3 -1.5
v -0.1 1.3 -1.6
v 0.1 1 -0.7
v 0.1 1 -1.5
v 0.1 1.1 -0.7
v 0.1 1.1 -1.5
v 0.1 1.3 -0.7
v 0.1 1.3 -1.5
v 0.1 1.4 -0.7
v 0.1 1.4 -1.5
v 0.2 1 -1.5
v 0.2 1 -1.6
v 0.2 1.1 -0.7
v 0.2 1.1 -1.5
v 0.2 1.3 -0.7
v 0.2 1.3 -1.5
v 0.2 1.4 -1.5
v 0.2 1.4 -1.6
v 0.4 1.7 0.9
v 0.4 1.7 0.8
v 0.4 1.7 -0.2
v 0.4 1.7 -0.3
v 0.4 1.8 0.9
v 0.4 1.8 0.8
v 0.4 1.8 -0.2
v 0.4 1.8 -0.3
v 0.5 1.7 0.8
v 0.5 1.7 -0.2
v 0.5 1.8 0.8
v 0.5 1.8 -0.2
v 0.7 0.8 1.3
v 0.7 0.8 1.1
v 0.7 0.8 -0.5
v 0.7 0.8 -0.7
v 0.7 1.6 1.3
v 0.7 1.6 1.1
v 0.7 1.6 -0.5
v 0.7 1.6 -0.7
v 0.7 1.7 1.1
v 0.7 1.7 -0.5
v 0.9 0.8 1.1
v 0.9 0.8 -0.5
v 0.9 1 0.9
v 0.9 1 -0.3
v 0.9 1.3 0.9
v 0.9 1.3 -0.3
v 0.9 1.6 1.1
v 0.9 1.6 -0.5
v 1 1 0.9
v 1 1 -0.3
v 1 1.3 0.9
v 1 1.3 -0.3
v -0.7 0.8 1.3
v -0.7 1.6 1.3
v 0.7 0.8 1.3
v 0.7 1.6 1.3
v -0.9 0.8 1.1
v -0.9 1.6 1.1
v -0.7 0.8 1.1
v -0.7 1.6 1.1
v -0.7 1.7 1.1
v 0.7 0.8 1.1
v 0.7 1.6 1.1
v 0.7 1.7 1.1
v 0.9 0.8 1.1
v 0.9 1.6 1.1
v -1 1 0.9
v -1 1.3 0.9
v -0.9 1 0.9
v -0.9 1.3 0.9
v -0.4 1.7 0.9
v -0.4 1.8 0.9
v 0.4 1.7 0.9
v 0.4 1.8 0.9
v 0.9 1 0.9
v 0.9 1.3 0.9
v 1 1 0.9
v 1 1.3 0.9
v -0.5 1.7 0.8
v -0.5 1.8 0.8
v -0.4 1.7 0.8
v -0.4 1.8 0.8
v 0.4 1.7 0.8
v 0.4 1.8 0.8
v 0.5 1.7 0.8
v 0.5 1.8 0.8
v -0.3 1.5 -0.1
v -0.3 1.6 -0.1
v -0.3 1.8 -0.1
v 0.3 1.5 -0.1
v 0.3 1.6 -0.1
v 0.3 1.8 -0.1
v -0.2 1 -1.5
v -0.2 1.1 -1.5
v -0.2 1.3 -1.5
v -0.2 1.4 -1.5
v -0.1 1 -1.5
v -0.1 1.1 -1.5
v -0.1 1.3 -1.5
v -0.1 1.4 -1.5
v 0.1 1 -1.5
v 0.1 1.1 -1.5
v 0.1 1.3 -1.5
v 0.1 1.4 -1.5
v 0.2 1 -1.5
v 0.2 1.1 -1.5
v 0.2 1.3 -1.5
v 0.2 1.4 -1.5
v -0.3 1.5 0.7
v -0.3 1.6 0.7
v -0.3 1.8 0.7
v 0.3 1.5 0.7
v 0.3 1.6 0.7
v 0.3 1.8 0.7
v -0.5 1.7 -0.2
v -0.5 1.8 -0.2
v -0.4 1.7 -0.2
v -0.4 1.8 -0.2
v 0.4 1.7 -0.2
v 0.4 1.8 -0.2
v 0.5 1.7 -0.2
v 0.5 1.8 -0.2
v -1 1 -0.3
v -1 1.3 -0.3
v -0.9 1 -0.3
v -0.9 1.3 -0.3
v -0.4 1.7 -0.3
v -0.4 1.8 -0.3
v 0.4 1.7 -0.3
v 0.4 1.8 -0.3
v 0.9 1 -0.3
v 0.9 1.3 -0.3
v 1 1 -0.3
v 1 1.3 -0.3
v -0.9 0.8 -0.5
v -0.9 1.6 -0.5
v -0.7 0.8 -0.5
v -0.7 1.6 -0.5
v -0.7 1.7 -0.5
v 0.7 0.8 -0.5
v 0.7 1.6 -0.5
v 0.7 1.7 -0.5
v 0.9 0.8 -0.5
v 0.9 1.6 -0.5
v -0.7 0.8 -0.7
v -0.7 1.6 -0.7
v -0.2 1.1 -0.7
v -0.2 1.3 -0.7
v -0.1 1 -0.7
v -0.1 1.1 -0.7
v -0.1 1.3 -0.7
v -0.1 1.4 -0.7
v 0.1 1 -0.7
v 0.1 1.1 -0.7
v 0.1 1.3 -0.7
v 0.1 1.4 -0.7
v 0.2 1.1 -0.7
v 0.2 1.3 -0.7
v 0.7 0.8 -0.7
v 0.7 1.6 -0.7
v -0.1 1.1 -1.5
v -0.1 1.3 -1.5
v 0.1 1.1 -1.5
v 0.1 1.3 -1.5
v -0.2 1 -1.6
v -0.2 1.4 -1.6
v -0.1 1.1 -1.6
v -0.1 1.3 -1.6
v 0.1 1.1 -1.6
v 0.1 1.3 -1.6
v 0.2 1 -1.6
v 0.2 1.4 -1.6
v -0.7 0.8 1.3
v 0.7 0.8 1.3
v -0.9 0.8 1.1
v -0.7 0.8 1.1
v 0.7 0.8 1.1
v 0.9 0.8 1.1
v -0.9 0.8 -0.5
v -0.7 0.8 -0.5
v 0.7 0.8 -0.5
v 0.9 0.8 -0.5
v -0.7 0.8 -0.7
v 0.7 0.8 -0.7
v -1 1 0.9
v -0.9 1 0.9
v 0.9 1 0.9
v 1 1 0.9
v -1 1 -0.3
v -0.9 1 -0.3
v 0.9 1 -0.3
v 1 1 -0.3
v -0.1 1 -0.7
v 0.1 1 -0.7
v -0.2 1 -1.5
v -0.1 1 -1.5
v 0.1 1 -1.5
v 0.2 1 -1.5
v -0.2 1 -1.6
v 0.2 1 -1.6
v -0.2 1.1 -0.7
v -0.1 1.1 -0.7
v 0.1 1.1 -0.7
v 0.2 1.1 -0.7
v -0.2 1.1 -1.5
v -0.1 1.1 -1.5
v 0.1 1.1 -1.5
v 0.2 1.1 -1.5
v -0.1 1.3 -1.5
v 0.1 1.3 -1.5
v -0.1 1.3 -1.6
v 0.1 1.3 -1.6
v -0.1 1.1 -1.5
v 0.1 1.1 -1.5
v -0.1 1.1 -1.6
v 0.1 1.1 -1.6
v -1 1.3 0.9
v -0.9 1.3 0.9
v 0.9 1.3 0.9
v 1 1.3 0.9
v -1 1.3 -0.3
v -0.9 1.3 -0.3
v 0.9 1.3 -0.3
v 1 1.3 -0.3
v -0.2 1.3 -0.7
v -0.1 1.3 -0.7
v 0.1 1.3 -0.7
v 0.2 1.3 -0.7
v -0.2 1.3 -1.5
v -0.1 1.3 -1.5
v 0.1 1.3 -1.5
v 0.2 1.3 -1.5
v -0.1 1.4 -0.7
v 0.1 1.4 -0.7
v -0.2 1.4 -1.5
v -0.1 1.4 -1.5
v 0.1 1.4 -1.5
v 0.2 1.4 -1.5
v -0.2 1.4 -1.6
v 0.2 1.4 -1.6
v -0.3 1.5 0.7
v 0.3 1.5 0.7
v -0.3 1.5 -0.1
v 0.3 1.5 -0.1
v -0.7 1.6 1.3
v 0.7 1.6 1.3
v -0.9 1.6 1.1
v -0.7 1.6 1.1
v 0.7 1.6 1.1
v 0.9 1.6 1.1
v -0.9 1.6 -0.5
v -0.7 1.6 -0.5
v 0.7 1.6 -0.5
v 0.9 1.6 -0.5
v -0.7 1.6 -0.7
v 0.7 1.6 -0.7
v -0.7 1.7 1.1
v 0.7 1.7 1.1
v -0.4 1.7 0.9
v 0.4 1.7 0.9
v -0.5 1.7 0.8
v -0.4 1.7 0.8
v 0.4 1.7 0.8
v 0.5 1.7 0.8
v -0.5 1.7 -0.2
v -0.4 1.7 -0.2
v 0.4 1.7 -0.2
v 0.5 1.7 -0.2
v -0.4 1.7 -0.3
v 0.4 1.7 -0.3
v -0.7 1.7 -0.5
v 0.7 1.7 -0.5
v -0.4 1.8 0.9
v 0.4 1.8 0.9
v -0.5 1.8 0.8
v -0.4 1.8 0.8
v 0.4 1.8 0.8
v 0.5 1.8 0.8
v -0.3 1.8 0.7
v 0.3 1.8 0.7
v -0.3 1.8 -0.1
v 0.3 1.8 -0.1
v -0.5 1.8 -0.2
v -0.4 1.8 -0.2
v 0.4 1.8 -0.2
v 0.5 1.8 -0.2
v -0.4 1.8 -0.3
v 0.4 1.8 -0.3

# faces
f 3/3/1 2/3/1 1/3/1
f 4/3/1 2/3/1 3/3/1
f 7/2/1 6/2/1 5/2/1
f 8/2/1 6/2/1 7/2/1
f 9/2/1 7/2/1 5/2/1
f 10/2/1 6/2/1 8/2/1
f 11/2/1 9/2/1 5/2/1
f 11/2/1 10/2/1 9/2/1
f 12/2/1 6/2/1 10/2/1
f 12/2/1 10/2/1 11/2/1
f 17/2/1 14/2/1 13/2/1
f 18/2/1 14/2/1 17/2/1
f 19/2/1 16/2/1 15/2/1
f 20/2/1 16/2/1 19/2/1
f 21/2/1 19/2/1 18/2/1
f 22/2/1 19/2/1 21/2/1
f 25/2/1 24/2/1 23/2/1
f 26/2/1 24/2/1 25/2/1
f 31/2/1 28/2/1 27/2/1
f 32/2/1 28/2/1 31/2/1
f 33/2/1 30/2/1 29/2/1
f 34/2/1 30/2/1 33/2/1
f 38/1/1 36/1/1 35/1/1
f 39/1/1 38/1/1 37/1/1
f 40/1/1 36/1/1 38/1/1
f 40/1/1 38/1/1 39/1/1
f 41/1/1 36/1/1 40/1/1
f 42/1/1 36/1/1 41/1/1
f 45/1/1 44/1/1 43/1/1
f 46/1/1 44/1/1 45/1/1
f 49/1/1 48/1/1 47/1/1
f 50/1/1 48/1/1 49/1/1
f 53/1/1 52/1/1 51/1/1
f 54/1/1 52/1/1 53/1/1
f 57/4/1 56/4/1 55/4/1
f 58/4/1 56/4/1 57/4/1
f 59/2/1 58/2/1 57/2/1
f 60/2/1 58/2/1 59/2/1
f 61/4/2 62/4/2 63/4/2
f 63/4/2 62/4/2 64/4/2
f 63/2/2 64/2/2 65/2/2
f 65/2/2 64/2/2 66/2/2
f 67/1/2 68/1/2 69/1/2
f 69/1/2 68/1/2 70/1/2
f 71/1/2 72/1/2 73/1/2
f 73/1/2 72/1/2 74/1/2
f 75/1/2 76/1/2 77/1/2
f 77/1/2 76/1/2 78/1/2
f 79/1/2 80/1/2 82/1/2
f 81/1/2 82/1/2 83/1/2
f 82/1/2 80/1/2 84/1/2
f 83/1/2 82/1/2 84/1/2
f 84/1/2 80/1/2 85/1/2
f 85/1/2 80/1/2 86/1/2
f 87/2/2 88/2/2 91/2/2
f 91/2/2 88/2/2 92/2/2
f 89/2/2 90/2/2 93/2/2
f 93/2/2 90/2/2 94/2/2
f 95/2/2 96/2/2 97/2/2
f 97/2/2 96/2/2 98/2/2
f 99/2/2 100/2/2 103/2/2
f 103/2/2 100/2/2 104/2/2
f 101/2/2 102/2/2 105/2/2
f 105/2/2 102/2/2 106/2/2
f 104/2/2 105/2/2 107/2/2
f 107/2/2 105/2/2 108/2/2
f 109/2/2 110/2/2 111/2/2
f 111/2/2 110/2/2 112/2/2
f 109/2/2 111/2/2 113/2/2
f 112/2/2 110/2/2 114/2/2
f 109/2/2 113/2/2 115/2/2
f 113/2/2 114/2/2 115/2/2
f 114/2/2 110/2/2 116/2/2
f 115/2/2 114/2/2 116/2/2
f 117/3/2 118/3/2 119/3/2
f 119/3/2 118/3/2 120/3/2
f 123/2/3 122/2/3 121/2/3
f 124/2/3 122/2/3 123/2/3
f 127/2/3 126/2/3 125/2/3
f 128/2/3 126/2/3 127/2/3
f 131/2/3 129/2/3 128/2/3
f 132/2/3 129/2/3 131/2/3
f 133/2/3 131/2/3 130/2/3
f 134/2/3 131/2/3 133/2/3
f 137/3/3 136/3/3 135/3/3
f 138/3/3 136/3/3 137/3/3
f 141/2/3 140/2/3 139/2/3
f 142/2/3 140/2/3 141/2/3
f 145/3/3 144/3/3 143/3/3
f 146/3/3 144/3/3 145/3/3
f 149/2/3 148/2/3 147/2/3
f 150/2/3 148/2/3 149/2/3
f 153/2/3 152/2/3 151/2/3
f 154/2/3 152/2/3 153/2/3
f 158/4/3 156/4/3 155/4/3
f 159/2/3 157/2/3 156/2/3
f 159/4/3 156/4/3 158/4/3
f 160/2/3 157/2/3 159/2/3
f 165/1/3 162/1/3 161/1/3
f 166/1/3 162/1/3 165/1/3
f 167/1/3 164/1/3 163/1/3
f 168/1/3 164/1/3 167/1/3
f 173/1/3 170/1/3 169/1/3
f 174/1/3 170/1/3 173/1/3
f 175/1/3 172/1/3 171/1/3
f 176/1/3 172/1/3 175/1/3
f 177/4/4 178/4/4 180/4/4
f 178/2/4 179/2/4 181/2/4
f 180/4/4 178/4/4 181/4/4
f 181/2/4 179/2/4 182/2/4
f 183/2/4 184/2/4 185/2/4
f 185/2/4 184/2/4 186/2/4
f 187/2/4 188/2/4 189/2/4
f 189/2/4 188/2/4 190/2/4
f 191/3/4 192/3/4 193/3/4
f 193/3/4 192/3/4 194/3/4
f 195/2/4 196/2/4 197/2/4
f 197/2/4 196/2/4 198/2/4
f 199/3/4 200/3/4 201/3/4
f 201/3/4 200/3/4 202/3/4
f 203/2/4 204/2/4 205/2/4
f 205/2/4 204/2/4 206/2/4
f 206/2/4 207/2/4 209/2/4
f 209/2/4 207/2/4 210/2/4
f 208/2/4 209/2/4 211/2/4
f 211/2/4 209/2/4 212/2/4
f 213/2/4 214/2/4 215/2/4
f 215/2/4 214/2/4 216/2/4
f 213/2/4 215/2/4 217/2/4
f 217/2/4 215/2/4 218/2/4
f 216/2/4 214/2/4 219/2/4
f 219/2/4 214/2/4 220/2/4
f 213/2/4 217/2/4 221/2/4
f 220/2/4 214/2/4 224/2/4
f 221/2/4 222/2/4 225/2/4
f 223/2/4 224/2/4 226/2/4
f 221/2/4 225/2/4 227/2/4
f 225/2/4 226/2/4 227/2/4
f 213/2/4 221/2/4 227/2/4
f 226/2/4 224/2/4 228/2/4
f 227/2/4 226/2/4 228/2/4
f 224/2/4 214/2/4 228/2/4
f 229/1/4 230/1/4 231/1/4
f 231/1/4 230/1/4 232/1/4
f 233/1/4 234/1/4 235/1/4
f 235/1/4 234/1/4 236/1/4
f 233/1/4 235/1/4 237/1/4
f 236/1/4 234/1/4 238/1/4
f 233/1/4 237/1/4 239/1/4
f 237/1/4 238/1/4 239/1/4
f 238/1/4 234/1/4 240/1/4
f 239/1/4 238/1/4 240/1/4
f 244/2/5 242/2/5 241/2/5
f 245/2/5 242/2/5 244/2/5
f 247/2/5 244/2/5 243/2/5
f 247/2/5 246/2/5 245/2/5
f 247/2/5 245/2/5 244/2/5
f 248/2/5 246/2/5 247/2/5
f 249/2/5 246/2/5 248/2/5
f 250/2/5 246/2/5 249/2/5
f 251/2/5 249/2/5 248/2/5
f 252/2/5 249/2/5 251/2/5
f 257/3/5 254/3/5 253/3/5
f 258/3/5 254/3/5 257/3/5
f 259/3/5 256/3/5 255/3/5
f 260/3/5 256/3/5 259/3/5
f 264/1/5 262/1/5 261/1/5
f 265/1/5 262/1/5 264/1/5
f 267/1/5 264/1/5 263/1/5
f 267/1/5 266/1/5 265/1/5
f 267/1/5 265/1/5 264/1/5
f 268/1/5 266/1/5 267/1/5
f 273/1/5 270/1/5 269/1/5
f 274/1/5 270/1/5 273/1/5
f 275/1/5 272/1/5 271/1/5
f 276/1/5 272/1/5 275/1/5
f 279/1/5 278/1/5 277/1/5
f 280/1/5 278/1/5 279/1/5
f 281/1/6 282/1/6 283/1/6
f 283/1/6 282/1/6 284/1/6
f 285/3/6 286/3/6 289/3/6
f 289/3/6 286/3/6 290/3/6
f 287/3/6 288/3/6 291/3/6
f 291/3/6 288/3/6 292/3/6
f 293/1/6 294/1/6 297/1/6
f 297/1/6 294/1/6 298/1/6
f 295/1/6 296/1/6 299/1/6
f 299/1/6 296/1/6 300/1/6
f 301/1/6 302/1/6 304/1/6
f 304/1/6 302/1/6 305/1/6
f 303/1/6 304/1/6 307/1/6
f 305/1/6 306/1/6 307/1/6
f 304/1/6 305/1/6 307/1/6
f 307/1/6 306/1/6 308/1/6
f 309/4/6 310/4/6 311/4/6
f 311/4/6 310/4/6 312/4/6
f 313/2/6 314/2/6 316/2/6
f 316/2/6 314/2/6 317/2/6
f 315/2/6 316/2/6 319/2/6
f 319/2/6 316/2/6 320/2/6
f 317/2/6 318/2/6 321/2/6
f 321/2/6 318/2/6 322/2/6
f 320/2/6 321/2/6 323/2/6
f 323/2/6 321/2/6 324/2/6
f 325/2/6 326/2/6 327/2/6
f 327/2/6 326/2/6 328/2/6
f 325/2/6 327/2/6 329/2/6
f 329/2/6 327/2/6 330/2/6
f 328/2/6 326/2/6 331/2/6
f 331/2/6 326/2/6 332/2/6
f 325/2/6 329/2/6 333/2/6
f 332/2/6 326/2/6 336/2/6
f 333/2/6 334/2/6 337/2/6
f 335/2/6 336/2/6 338/2/6
f 333/2/6 337/2/6 339/2/6
f 337/2/6 338/2/6 339/2/6
f 325/2/6 333/2/6 339/2/6
f 338/2/6 336/2/6 340/2/6
f 339/2/6 338/2/6 340/2/6
f 336/2/6 326/2/6 340/2/6
f 341/2/6 342/2/6 344/2/6
f 344/2/6 342/2/6 345/2/6
f 343/2/6 344/2/6 347/2/6
f 345/2/6 346/2/6 347/2/6
f 344/2/6 345/2/6 347/2/6
f 347/2/6 346/2/6 348/2/6
f 343/2/6 347/2/6 349/2/6
f 348/2/6 346/2/6 350/2/6
f 343/2/6 349/2/6 351/2/6
f 349/2/6 350/2/6 351/2/6
f 351/2/6 350/2/6 352/2/6
f 350/2/6 346/2/6 353/2/6
f 352/2/6 350/2/6 353/2/6
f 353/2/6 346/2/6 354/2/6
f 352/2/6 353/2/6 355/2/6
f 355/2/6 353/2/6 356/2/6
