# MagicaVoxel @ Ephtracy

# group
o 

# material
mtllib barriere.mtl
usemtl palette

# normals
vn -1 0 0
vn 1 0 0
vn 0 0 1
vn 0 0 -1
vn 0 -1 0
vn 0 1 0

# texcoords
vt 0.0175781 0.5
vt 0.841797 0.5
vt 0.958984 0.5
vt 0.986328 0.5

# verts
v -1.5 0.5 0.2
v -1.5 0.5 0.1
v -1.5 0.5 0
v -1.5 0.5 -0.1
v -1.5 0.7 0.2
v -1.5 0.7 0.1
v -1.5 0.7 0
v -1.5 0.7 -0.1
v -1.5 0.9 0.2
v -1.5 0.9 0.1
v -1.5 0.9 0
v -1.5 0.9 -0.1
v -1.5 1.1 0.2
v -1.5 1.1 0.1
v -1.5 1.1 0
v -1.5 1.1 -0.1
v -1.3 1.3 0.2
v -1.3 1.3 -0.1
v -1.3 1.6 0.2
v -1.3 1.6 -0.1
v -1.2 0 0.1
v -1.2 0 0
v -1.2 0.5 0.1
v -1.2 0.5 0
v -1.2 0.7 0.1
v -1.2 0.7 0
v -1.2 0.9 0.1
v -1.2 0.9 0
v -1.2 1.1 0.1
v -1.2 1.1 0
v -1.2 1.3 0.1
v -1.2 1.3 0
v 1 1.3 0.2
v 1 1.3 -0.1
v 1 1.6 0.2
v 1 1.6 -0.1
v 1.1 0 0.1
v 1.1 0 0
v 1.1 0.5 0.1
v 1.1 0.5 0
v 1.1 0.7 0.1
v 1.1 0.7 0
v 1.1 0.9 0.1
v 1.1 0.9 0
v 1.1 1.1 0.1
v 1.1 1.1 0
v 1.1 1.3 0.1
v 1.1 1.3 0
v -1.1 0 0.1
v -1.1 0 0
v -1.1 0.5 0.1
v -1.1 0.5 0
v -1.1 0.7 0.1
v -1.1 0.7 0
v -1.1 0.9 0.1
v -1.1 0.9 0
v -1.1 1.1 0.1
v -1.1 1.1 0
v -1.1 1.3 0.1
v -1.1 1.3 0
v -1 1.3 0.2
v -1 1.3 -0.1
v -1 1.6 0.2
v -1 1.6 -0.1
v 1.2 0 0.1
v 1.2 0 0
v 1.2 0.5 0.1
v 1.2 0.5 0
v 1.2 0.7 0.1
v 1.2 0.7 0
v 1.2 0.9 0.1
v 1.2 0.9 0
v 1.2 1.1 0.1
v 1.2 1.1 0
v 1.2 1.3 0.1
v 1.2 1.3 0
v 1.3 1.3 0.2
v 1.3 1.3 -0.1
v 1.3 1.6 0.2
v 1.3 1.6 -0.1
v 1.5 0.5 0.2
v 1.5 0.5 0.1
v 1.5 0.5 0
v 1.5 0.5 -0.1
v 1.5 0.7 0.2
v 1.5 0.7 0.1
v 1.5 0.7 0
v 1.5 0.7 -0.1
v 1.5 0.9 0.2
v 1.5 0.9 0.1
v 1.5 0.9 0
v 1.5 0.9 -0.1
v 1.5 1.1 0.2
v 1.5 1.1 0.1
v 1.5 1.1 0
v 1.5 1.1 -0.1
v -1.5 0.5 0.2
v -1.5 0.7 0.2
v -1.5 0.9 0.2
v -1.5 1.1 0.2
v -1.3 1.3 0.2
v -1.3 1.6 0.2
v -1 1.3 0.2
v -1 1.6 0.2
v -0.9 0.5 0.2
v -0.9 0.7 0.2
v -0.9 0.9 0.2
v -0.9 1.1 0.2
v -0.3 0.5 0.2
v -0.3 0.7 0.2
v -0.3 0.9 0.2
v -0.3 1.1 0.2
v 0.3 0.5 0.2
v 0.3 0.7 0.2
v 0.3 0.9 0.2
v 0.3 1.1 0.2
v 0.9 0.5 0.2
v 0.9 0.7 0.2
v 0.9 0.9 0.2
v 0.9 1.1 0.2
v 1 1.3 0.2
v 1 1.6 0.2
v 1.3 1.3 0.2
v 1.3 1.6 0.2
v 1.5 0.5 0.2
v 1.5 0.7 0.2
v 1.5 0.9 0.2
v 1.5 1.1 0.2
v -1.2 0 0.1
v -1.2 0.5 0.1
v -1.2 0.7 0.1
v -1.2 0.9 0.1
v -1.2 1.1 0.1
v -1.2 1.3 0.1
v -1.1 0 0.1
v -1.1 0.5 0.1
v -1.1 0.7 0.1
v -1.1 0.9 0.1
v -1.1 1.1 0.1
v -1.1 1.3 0.1
v 1.1 0 0.1
v 1.1 0.5 0.1
v 1.1 0.7 0.1
v 1.1 0.9 0.1
v 1.1 1.1 0.1
v 1.1 1.3 0.1
v 1.2 0 0.1
v 1.2 0.5 0.1
v 1.2 0.7 0.1
v 1.2 0.9 0.1
v 1.2 1.1 0.1
v 1.2 1.3 0.1
v -1.5 0.5 0
v -1.5 0.7 0
v -1.5 0.9 0
v -1.5 1.1 0
v -1.2 0.5 0
v -1.2 0.7 0
v -1.2 0.9 0
v -1.2 1.1 0
v -1.1 0.5 0
v -1.1 0.7 0
v -1.1 0.9 0
v -1.1 1.1 0
v -0.9 0.5 0
v -0.9 0.7 0
v -0.9 0.9 0
v -0.9 1.1 0
v -0.3 0.5 0
v -0.3 0.7 0
v -0.3 0.9 0
v -0.3 1.1 0
v 0.3 0.5 0
v 0.3 0.7 0
v 0.3 0.9 0
v 0.3 1.1 0
v 0.9 0.5 0
v 0.9 0.7 0
v 0.9 0.9 0
v 0.9 1.1 0
v 1.1 0.5 0
v 1.1 0.7 0
v 1.1 0.9 0
v 1.1 1.1 0
v 1.2 0.5 0
v 1.2 0.7 0
v 1.2 0.9 0
v 1.2 1.1 0
v 1.5 0.5 0
v 1.5 0.7 0
v 1.5 0.9 0
v 1.5 1.1 0
v -1.5 0.5 0.1
v -1.5 0.7 0.1
v -1.5 0.9 0.1
v -1.5 1.1 0.1
v -1.2 0.5 0.1
v -1.2 0.7 0.1
v -1.2 0.9 0.1
v -1.2 1.1 0.1
v -1.1 0.5 0.1
v -1.1 0.7 0.1
v -1.1 0.9 0.1
v -1.1 1.1 0.1
v -0.9 0.5 0.1
v -0.9 0.7 0.1
v -0.9 0.9 0.1
v -0.9 1.1 0.1
v -0.3 0.5 0.1
v -0.3 0.7 0.1
v -0.3 0.9 0.1
v -0.3 1.1 0.1
v 0.3 0.5 0.1
v 0.3 0.7 0.1
v 0.3 0.9 0.1
v 0.3 1.1 0.1
v 0.9 0.5 0.1
v 0.9 0.7 0.1
v 0.9 0.9 0.1
v 0.9 1.1 0.1
v 1.1 0.5 0.1
v 1.1 0.7 0.1
v 1.1 0.9 0.1
v 1.1 1.1 0.1
v 1.2 0.5 0.1
v 1.2 0.7 0.1
v 1.2 0.9 0.1
v 1.2 1.1 0.1
v 1.5 0.5 0.1
v 1.5 0.7 0.1
v 1.5 0.9 0.1
v 1.5 1.1 0.1
v -1.2 0 0
v -1.2 0.5 0
v -1.2 0.7 0
v -1.2 0.9 0
v -1.2 1.1 0
v -1.2 1.3 0
v -1.1 0 0
v -1.1 0.5 0
v -1.1 0.7 0
v -1.1 0.9 0
v -1.1 1.1 0
v -1.1 1.3 0
v 1.1 0 0
v 1.1 0.5 0
v 1.1 0.7 0
v 1.1 0.9 0
v 1.1 1.1 0
v 1.1 1.3 0
v 1.2 0 0
v 1.2 0.5 0
v 1.2 0.7 0
v 1.2 0.9 0
v 1.2 1.1 0
v 1.2 1.3 0
v -1.5 0.5 -0.1
v -1.5 0.7 -0.1
v -1.5 0.9 -0.1
v -1.5 1.1 -0.1
v -1.3 1.3 -0.1
v -1.3 1.6 -0.1
v -1 1.3 -0.1
v -1 1.6 -0.1
v -0.9 0.5 -0.1
v -0.9 0.7 -0.1
v -0.9 0.9 -0.1
v -0.9 1.1 -0.1
v -0.3 0.5 -0.1
v -0.3 0.7 -0.1
v -0.3 0.9 -0.1
v -0.3 1.1 -0.1
v 0.3 0.5 -0.1
v 0.3 0.7 -0.1
v 0.3 0.9 -0.1
v 0.3 1.1 -0.1
v 0.9 0.5 -0.1
v 0.9 0.7 -0.1
v 0.9 0.9 -0.1
v 0.9 1.1 -0.1
v 1 1.3 -0.1
v 1 1.6 -0.1
v 1.3 1.3 -0.1
v 1.3 1.6 -0.1
v 1.5 0.5 -0.1
v 1.5 0.7 -0.1
v 1.5 0.9 -0.1
v 1.5 1.1 -0.1
v -1.2 0 0.1
v -1.1 0 0.1
v 1.1 0 0.1
v 1.2 0 0.1
v -1.2 0 0
v -1.1 0 0
v 1.1 0 0
v 1.2 0 0
v -1.5 0.5 0.2
v -0.9 0.5 0.2
v -0.3 0.5 0.2
v 0.3 0.5 0.2
v 0.9 0.5 0.2
v 1.5 0.5 0.2
v -1.5 0.5 0.1
v -1.2 0.5 0.1
v -1.1 0.5 0.1
v -0.9 0.5 0.1
v -0.3 0.5 0.1
v 0.3 0.5 0.1
v 0.9 0.5 0.1
v 1.1 0.5 0.1
v 1.2 0.5 0.1
v 1.5 0.5 0.1
v -1.5 0.5 0
v -1.2 0.5 0
v -1.1 0.5 0
v -0.9 0.5 0
v -0.3 0.5 0
v 0.3 0.5 0
v 0.9 0.5 0
v 1.1 0.5 0
v 1.2 0.5 0
v 1.5 0.5 0
v -1.5 0.5 -0.1
v -0.9 0.5 -0.1
v -0.3 0.5 -0.1
v 0.3 0.5 -0.1
v 0.9 0.5 -0.1
v 1.5 0.5 -0.1
v -1.5 0.9 0.2
v -0.9 0.9 0.2
v -0.3 0.9 0.2
v 0.3 0.9 0.2
v 0.9 0.9 0.2
v 1.5 0.9 0.2
v -1.5 0.9 0.1
v -1.2 0.9 0.1
v -1.1 0.9 0.1
v -0.9 0.9 0.1
v -0.3 0.9 0.1
v 0.3 0.9 0.1
v 0.9 0.9 0.1
v 1.1 0.9 0.1
v 1.2 0.9 0.1
v 1.5 0.9 0.1
v -1.5 0.9 0
v -1.2 0.9 0
v -1.1 0.9 0
v -0.9 0.9 0
v -0.3 0.9 0
v 0.3 0.9 0
v 0.9 0.9 0
v 1.1 0.9 0
v 1.2 0.9 0
v 1.5 0.9 0
v -1.5 0.9 -0.1
v -0.9 0.9 -0.1
v -0.3 0.9 -0.1
v 0.3 0.9 -0.1
v 0.9 0.9 -0.1
v 1.5 0.9 -0.1
v -1.3 1.3 0.2
v -1 1.3 0.2
v 1 1.3 0.2
v 1.3 1.3 0.2
v -1.2 1.3 0.1
v -1.1 1.3 0.1
v 1.1 1.3 0.1
v 1.2 1.3 0.1
v -1.2 1.3 0
v -1.1 1.3 0
v 1.1 1.3 0
v 1.2 1.3 0
v -1.3 1.3 -0.1
v -1 1.3 -0.1
v 1 1.3 -0.1
v 1.3 1.3 -0.1
v -1.5 0.7 0.2
v -0.9 0.7 0.2
v -0.3 0.7 0.2
v 0.3 0.7 0.2
v 0.9 0.7 0.2
v 1.5 0.7 0.2
v -1.5 0.7 0.1
v -1.2 0.7 0.1
v -1.1 0.7 0.1
v -0.9 0.7 0.1
v -0.3 0.7 0.1
v 0.3 0.7 0.1
v 0.9 0.7 0.1
v 1.1 0.7 0.1
v 1.2 0.7 0.1
v 1.5 0.7 0.1
v -1.5 0.7 0
v -1.2 0.7 0
v -1.1 0.7 0
v -0.9 0.7 0
v -0.3 0.7 0
v 0.3 0.7 0
v 0.9 0.7 0
v 1.1 0.7 0
v 1.2 0.7 0
v 1.5 0.7 0
v -1.5 0.7 -0.1
v -0.9 0.7 -0.1
v -0.3 0.7 -0.1
v 0.3 0.7 -0.1
v 0.9 0.7 -0.1
v 1.5 0.7 -0.1
v -1.5 1.1 0.2
v -0.9 1.1 0.2
v -0.3 1.1 0.2
v 0.3 1.1 0.2
v 0.9 1.1 0.2
v 1.5 1.1 0.2
v -1.5 1.1 0.1
v -1.2 1.1 0.1
v -1.1 1.1 0.1
v -0.9 1.1 0.1
v -0.3 1.1 0.1
v 0.3 1.1 0.1
v 0.9 1.1 0.1
v 1.1 1.1 0.1
v 1.2 1.1 0.1
v 1.5 1.1 0.1
v -1.5 1.1 0
v -1.2 1.1 0
v -1.1 1.1 0
v -0.9 1.1 0
v -0.3 1.1 0
v 0.3 1.1 0
v 0.9 1.1 0
v 1.1 1.1 0
v 1.2 1.1 0
v 1.5 1.1 0
v -1.5 1.1 -0.1
v -0.9 1.1 -0.1
v -0.3 1.1 -0.1
v 0.3 1.1 -0.1
v 0.9 1.1 -0.1
v 1.5 1.1 -0.1
v -1.3 1.6 0.2
v -1 1.6 0.2
v 1 1.6 0.2
v 1.3 1.6 0.2
v -1.3 1.6 -0.1
v -1 1.6 -0.1
v 1 1.6 -0.1
v 1.3 1.6 -0.1

# faces
f 5/3/1 2/3/1 1/3/1
f 6/3/1 2/3/1 5/3/1
f 7/3/1 4/3/1 3/3/1
f 8/3/1 4/3/1 7/3/1
f 13/3/1 10/3/1 9/3/1
f 14/3/1 10/3/1 13/3/1
f 15/3/1 12/3/1 11/3/1
f 16/3/1 12/3/1 15/3/1
f 19/1/1 18/1/1 17/1/1
f 20/1/1 18/1/1 19/1/1
f 23/4/1 22/4/1 21/4/1
f 24/4/1 22/4/1 23/4/1
f 25/4/1 24/4/1 23/4/1
f 26/4/1 24/4/1 25/4/1
f 27/4/1 26/4/1 25/4/1
f 28/4/1 26/4/1 27/4/1
f 29/4/1 28/4/1 27/4/1
f 30/4/1 28/4/1 29/4/1
f 31/4/1 30/4/1 29/4/1
f 32/4/1 30/4/1 31/4/1
f 35/1/1 34/1/1 33/1/1
f 36/1/1 34/1/1 35/1/1
f 39/4/1 38/4/1 37/4/1
f 40/4/1 38/4/1 39/4/1
f 41/4/1 40/4/1 39/4/1
f 42/4/1 40/4/1 41/4/1
f 43/4/1 42/4/1 41/4/1
f 44/4/1 42/4/1 43/4/1
f 45/4/1 44/4/1 43/4/1
f 46/4/1 44/4/1 45/4/1
f 47/4/1 46/4/1 45/4/1
f 48/4/1 46/4/1 47/4/1
f 49/4/2 50/4/2 51/4/2
f 51/4/2 50/4/2 52/4/2
f 51/4/2 52/4/2 53/4/2
f 53/4/2 52/4/2 54/4/2
f 53/4/2 54/4/2 55/4/2
f 55/4/2 54/4/2 56/4/2
f 55/4/2 56/4/2 57/4/2
f 57/4/2 56/4/2 58/4/2
f 57/4/2 58/4/2 59/4/2
f 59/4/2 58/4/2 60/4/2
f 61/1/2 62/1/2 63/1/2
f 63/1/2 62/1/2 64/1/2
f 65/4/2 66/4/2 67/4/2
f 67/4/2 66/4/2 68/4/2
f 67/4/2 68/4/2 69/4/2
f 69/4/2 68/4/2 70/4/2
f 69/4/2 70/4/2 71/4/2
f 71/4/2 70/4/2 72/4/2
f 71/4/2 72/4/2 73/4/2
f 73/4/2 72/4/2 74/4/2
f 73/4/2 74/4/2 75/4/2
f 75/4/2 74/4/2 76/4/2
f 77/1/2 78/1/2 79/1/2
f 79/1/2 78/1/2 80/1/2
f 81/3/2 82/3/2 85/3/2
f 85/3/2 82/3/2 86/3/2
f 83/3/2 84/3/2 87/3/2
f 87/3/2 84/3/2 88/3/2
f 89/3/2 90/3/2 93/3/2
f 93/3/2 90/3/2 94/3/2
f 91/3/2 92/3/2 95/3/2
f 95/3/2 92/3/2 96/3/2
f 103/1/3 102/1/3 101/1/3
f 104/1/3 102/1/3 103/1/3
f 105/3/3 98/3/3 97/3/3
f 106/3/3 98/3/3 105/3/3
f 107/3/3 100/3/3 99/3/3
f 108/3/3 100/3/3 107/3/3
f 109/2/3 106/2/3 105/2/3
f 110/2/3 106/2/3 109/2/3
f 111/2/3 108/2/3 107/2/3
f 112/2/3 108/2/3 111/2/3
f 113/3/3 110/3/3 109/3/3
f 114/3/3 110/3/3 113/3/3
f 115/3/3 112/3/3 111/3/3
f 116/3/3 112/3/3 115/3/3
f 117/2/3 114/2/3 113/2/3
f 118/2/3 114/2/3 117/2/3
f 119/2/3 116/2/3 115/2/3
f 120/2/3 116/2/3 119/2/3
f 123/1/3 122/1/3 121/1/3
f 124/1/3 122/1/3 123/1/3
f 125/3/3 118/3/3 117/3/3
f 126/3/3 118/3/3 125/3/3
f 127/3/3 120/3/3 119/3/3
f 128/3/3 120/3/3 127/3/3
f 135/4/3 130/4/3 129/4/3
f 136/4/3 130/4/3 135/4/3
f 137/4/3 132/4/3 131/4/3
f 138/4/3 132/4/3 137/4/3
f 139/4/3 134/4/3 133/4/3
f 140/4/3 134/4/3 139/4/3
f 147/4/3 142/4/3 141/4/3
f 148/4/3 142/4/3 147/4/3
f 149/4/3 144/4/3 143/4/3
f 150/4/3 144/4/3 149/4/3
f 151/4/3 146/4/3 145/4/3
f 152/4/3 146/4/3 151/4/3
f 157/3/3 154/3/3 153/3/3
f 158/3/3 154/3/3 157/3/3
f 159/3/3 156/3/3 155/3/3
f 160/3/3 156/3/3 159/3/3
f 165/3/3 162/3/3 161/3/3
f 166/3/3 162/3/3 165/3/3
f 167/3/3 164/3/3 163/3/3
f 168/3/3 164/3/3 167/3/3
f 169/2/3 166/2/3 165/2/3
f 170/2/3 166/2/3 169/2/3
f 171/2/3 168/2/3 167/2/3
f 172/2/3 168/2/3 171/2/3
f 173/3/3 170/3/3 169/3/3
f 174/3/3 170/3/3 173/3/3
f 175/3/3 172/3/3 171/3/3
f 176/3/3 172/3/3 175/3/3
f 177/2/3 174/2/3 173/2/3
f 178/2/3 174/2/3 177/2/3
f 179/2/3 176/2/3 175/2/3
f 180/2/3 176/2/3 179/2/3
f 181/3/3 178/3/3 177/3/3
f 182/3/3 178/3/3 181/3/3
f 183/3/3 180/3/3 179/3/3
f 184/3/3 180/3/3 183/3/3
f 189/3/3 186/3/3 185/3/3
f 190/3/3 186/3/3 189/3/3
f 191/3/3 188/3/3 187/3/3
f 192/3/3 188/3/3 191/3/3
f 193/3/4 194/3/4 197/3/4
f 197/3/4 194/3/4 198/3/4
f 195/3/4 196/3/4 199/3/4
f 199/3/4 196/3/4 200/3/4
f 201/3/4 202/3/4 205/3/4
f 205/3/4 202/3/4 206/3/4
f 203/3/4 204/3/4 207/3/4
f 207/3/4 204/3/4 208/3/4
f 205/2/4 206/2/4 209/2/4
f 209/2/4 206/2/4 210/2/4
f 207/2/4 208/2/4 211/2/4
f 211/2/4 208/2/4 212/2/4
f 209/3/4 210/3/4 213/3/4
f 213/3/4 210/3/4 214/3/4
f 211/3/4 212/3/4 215/3/4
f 215/3/4 212/3/4 216/3/4
f 213/2/4 214/2/4 217/2/4
f 217/2/4 214/2/4 218/2/4
f 215/2/4 216/2/4 219/2/4
f 219/2/4 216/2/4 220/2/4
f 217/3/4 218/3/4 221/3/4
f 221/3/4 218/3/4 222/3/4
f 219/3/4 220/3/4 223/3/4
f 223/3/4 220/3/4 224/3/4
f 225/3/4 226/3/4 229/3/4
f 229/3/4 226/3/4 230/3/4
f 227/3/4 228/3/4 231/3/4
f 231/3/4 228/3/4 232/3/4
f 233/4/4 234/4/4 239/4/4
f 239/4/4 234/4/4 240/4/4
f 235/4/4 236/4/4 241/4/4
f 241/4/4 236/4/4 242/4/4
f 237/4/4 238/4/4 243/4/4
f 243/4/4 238/4/4 244/4/4
f 245/4/4 246/4/4 251/4/4
f 251/4/4 246/4/4 252/4/4
f 247/4/4 248/4/4 253/4/4
f 253/4/4 248/4/4 254/4/4
f 249/4/4 250/4/4 255/4/4
f 255/4/4 250/4/4 256/4/4
f 261/1/4 262/1/4 263/1/4
f 263/1/4 262/1/4 264/1/4
f 257/3/4 258/3/4 265/3/4
f 265/3/4 258/3/4 266/3/4
f 259/3/4 260/3/4 267/3/4
f 267/3/4 260/3/4 268/3/4
f 265/2/4 266/2/4 269/2/4
f 269/2/4 266/2/4 270/2/4
f 267/2/4 268/2/4 271/2/4
f 271/2/4 268/2/4 272/2/4
f 269/3/4 270/3/4 273/3/4
f 273/3/4 270/3/4 274/3/4
f 271/3/4 272/3/4 275/3/4
f 275/3/4 272/3/4 276/3/4
f 273/2/4 274/2/4 277/2/4
f 277/2/4 274/2/4 278/2/4
f 275/2/4 276/2/4 279/2/4
f 279/2/4 276/2/4 280/2/4
f 281/1/4 282/1/4 283/1/4
f 283/1/4 282/1/4 284/1/4
f 277/3/4 278/3/4 285/3/4
f 285/3/4 278/3/4 286/3/4
f 279/3/4 280/3/4 287/3/4
f 287/3/4 280/3/4 288/3/4
f 293/4/5 290/4/5 289/4/5
f 294/4/5 290/4/5 293/4/5
f 295/4/5 292/4/5 291/4/5
f 296/4/5 292/4/5 295/4/5
f 303/3/5 298/3/5 297/3/5
f 304/3/5 298/3/5 303/3/5
f 305/3/5 298/3/5 304/3/5
f 306/2/5 299/2/5 298/2/5
f 306/3/5 298/3/5 305/3/5
f 307/3/5 300/3/5 299/3/5
f 307/2/5 299/2/5 306/2/5
f 308/2/5 301/2/5 300/2/5
f 308/3/5 300/3/5 307/3/5
f 309/3/5 302/3/5 301/3/5
f 309/2/5 301/2/5 308/2/5
f 310/3/5 302/3/5 309/3/5
f 311/3/5 302/3/5 310/3/5
f 312/3/5 302/3/5 311/3/5
f 323/3/5 314/3/5 313/3/5
f 323/3/5 315/3/5 314/3/5
f 323/3/5 316/3/5 315/3/5
f 324/2/5 317/2/5 316/2/5
f 324/3/5 316/3/5 323/3/5
f 325/3/5 318/3/5 317/3/5
f 325/2/5 317/2/5 324/2/5
f 326/2/5 319/2/5 318/2/5
f 326/3/5 318/3/5 325/3/5
f 327/3/5 322/3/5 321/3/5
f 327/2/5 319/2/5 326/2/5
f 327/3/5 321/3/5 320/3/5
f 327/3/5 320/3/5 319/3/5
f 328/3/5 322/3/5 327/3/5
f 335/3/5 330/3/5 329/3/5
f 336/3/5 330/3/5 335/3/5
f 337/3/5 330/3/5 336/3/5
f 338/2/5 331/2/5 330/2/5
f 338/3/5 330/3/5 337/3/5
f 339/3/5 332/3/5 331/3/5
f 339/2/5 331/2/5 338/2/5
f 340/2/5 333/2/5 332/2/5
f 340/3/5 332/3/5 339/3/5
f 341/3/5 334/3/5 333/3/5
f 341/2/5 333/2/5 340/2/5
f 342/3/5 334/3/5 341/3/5
f 343/3/5 334/3/5 342/3/5
f 344/3/5 334/3/5 343/3/5
f 355/3/5 346/3/5 345/3/5
f 355/3/5 347/3/5 346/3/5
f 355/3/5 348/3/5 347/3/5
f 356/2/5 349/2/5 348/2/5
f 356/3/5 348/3/5 355/3/5
f 357/3/5 350/3/5 349/3/5
f 357/2/5 349/2/5 356/2/5
f 358/2/5 351/2/5 350/2/5
f 358/3/5 350/3/5 357/3/5
f 359/3/5 354/3/5 353/3/5
f 359/2/5 351/2/5 358/2/5
f 359/3/5 353/3/5 352/3/5
f 359/3/5 352/3/5 351/3/5
f 360/3/5 354/3/5 359/3/5
f 365/1/5 362/1/5 361/1/5
f 366/1/5 362/1/5 365/1/5
f 367/1/5 364/1/5 363/1/5
f 368/1/5 364/1/5 367/1/5
f 369/1/5 365/1/5 361/1/5
f 370/1/5 362/1/5 366/1/5
f 371/1/5 367/1/5 363/1/5
f 372/1/5 364/1/5 368/1/5
f 373/1/5 369/1/5 361/1/5
f 373/1/5 370/1/5 369/1/5
f 374/1/5 362/1/5 370/1/5
f 374/1/5 370/1/5 373/1/5
f 375/1/5 372/1/5 371/1/5
f 375/1/5 371/1/5 363/1/5
f 376/1/5 364/1/5 372/1/5
f 376/1/5 372/1/5 375/1/5
f 377/3/6 378/3/6 383/3/6
f 383/3/6 378/3/6 384/3/6
f 384/3/6 378/3/6 385/3/6
f 378/2/6 379/2/6 386/2/6
f 385/3/6 378/3/6 386/3/6
f 379/3/6 380/3/6 387/3/6
f 386/2/6 379/2/6 387/2/6
f 380/2/6 381/2/6 388/2/6
f 387/3/6 380/3/6 388/3/6
f 381/3/6 382/3/6 389/3/6
f 388/2/6 381/2/6 389/2/6
f 389/3/6 382/3/6 390/3/6
f 390/3/6 382/3/6 391/3/6
f 391/3/6 382/3/6 392/3/6
f 393/3/6 394/3/6 403/3/6
f 394/3/6 395/3/6 403/3/6
f 395/3/6 396/3/6 403/3/6
f 396/2/6 397/2/6 404/2/6
f 403/3/6 396/3/6 404/3/6
f 397/3/6 398/3/6 405/3/6
f 404/2/6 397/2/6 405/2/6
f 398/2/6 399/2/6 406/2/6
f 405/3/6 398/3/6 406/3/6
f 401/3/6 402/3/6 407/3/6
f 406/2/6 399/2/6 407/2/6
f 400/3/6 401/3/6 407/3/6
f 399/3/6 400/3/6 407/3/6
f 407/3/6 402/3/6 408/3/6
f 409/3/6 410/3/6 415/3/6
f 415/3/6 410/3/6 416/3/6
f 416/3/6 410/3/6 417/3/6
f 410/2/6 411/2/6 418/2/6
f 417/3/6 410/3/6 418/3/6
f 411/3/6 412/3/6 419/3/6
f 418/2/6 411/2/6 419/2/6
f 412/2/6 413/2/6 420/2/6
f 419/3/6 412/3/6 420/3/6
f 413/3/6 414/3/6 421/3/6
f 420/2/6 413/2/6 421/2/6
f 421/3/6 414/3/6 422/3/6
f 422/3/6 414/3/6 423/3/6
f 423/3/6 414/3/6 424/3/6
f 425/3/6 426/3/6 435/3/6
f 426/3/6 427/3/6 435/3/6
f 427/3/6 428/3/6 435/3/6
f 428/2/6 429/2/6 436/2/6
f 435/3/6 428/3/6 436/3/6
f 429/3/6 430/3/6 437/3/6
f 436/2/6 429/2/6 437/2/6
f 430/2/6 431/2/6 438/2/6
f 437/3/6 430/3/6 438/3/6
f 433/3/6 434/3/6 439/3/6
f 438/2/6 431/2/6 439/2/6
f 432/3/6 433/3/6 439/3/6
f 431/3/6 432/3/6 439/3/6
f 439/3/6 434/3/6 440/3/6
f 441/1/6 442/1/6 445/1/6
f 445/1/6 442/1/6 446/1/6
f 443/1/6 444/1/6 447/1/6
f 447/1/6 444/1/6 448/1/6
